<svg xmlns="http://www.w3.org/2000/svg" xmlns:xlink="http://www.w3.org/1999/xlink" viewBox="0 0 1080 1080"><defs><style>.cls-1,.cls-4{fill:none;}.cls-2{clip-path:url(#clip-path);}.cls-3{fill:#d54444;}.cls-4{stroke:#000;stroke-linecap:round;opacity:0;}.cls-4,.cls-7{stroke-miterlimit:10;}.cls-5{fill:#d874a2;}.cls-6{fill:#9783b7;}.cls-7,.cls-8{fill:#090916;}.cls-7{stroke:#161513;}</style><clipPath id="clip-path"><rect class="cls-1" x="25.93" y="-1071.74" width="1024" height="1024"/></clipPath></defs><title>Artboard 6</title><g id="Cornucopia"><g class="cls-2"><path class="cls-3" d="M985.42-23.33c0,19-7.24,34.43-16.18,34.43S953.07-4.31,953.07-23.33s7.24-34.42,16.17-34.42S985.42-42.34,985.42-23.33Z"/><path class="cls-4" d="M985.42-23.33c0,19-7.24,34.43-16.18,34.43S953.07-4.31,953.07-23.33s7.24-34.42,16.17-34.42S985.42-42.34,985.42-23.33Z"/><path class="cls-5" d="M997.63-8.64c0,18.25-6.89,33.05-15.37,33.05S966.89,9.61,966.89-8.64s6.88-33,15.37-33S997.63-26.89,997.63-8.64Z"/><path class="cls-4" d="M997.63-8.64c0,18.25-6.89,33.05-15.37,33.05S966.89,9.61,966.89-8.64s6.88-33,15.37-33S997.63-26.89,997.63-8.64Z"/><path class="cls-6" d="M1010.07,6.28c0,17.52-6.53,31.72-14.6,31.72s-14.6-14.2-14.6-31.72,6.54-31.72,14.6-31.72S1010.07-11.24,1010.07,6.28Z"/><path class="cls-4" d="M1010.07,6.28c0,17.52-6.53,31.72-14.6,31.72s-14.6-14.2-14.6-31.72,6.54-31.72,14.6-31.72S1010.07-11.24,1010.07,6.28Z"/><path class="cls-3" d="M1022.77,21.44c0,16.82-6.21,30.46-13.87,30.46S995,38.26,995,21.44,1001.24-9,1008.9-9,1022.77,4.62,1022.77,21.44Z"/><path class="cls-4" d="M1022.77,21.44c0,16.82-6.21,30.46-13.87,30.46S995,38.26,995,21.44,1001.24-9,1008.9-9,1022.77,4.62,1022.77,21.44Z"/><path class="cls-5" d="M1035.72,36.85c0,16.14-5.9,29.23-13.18,29.23S1009.36,53,1009.36,36.85s5.9-29.24,13.18-29.24S1035.72,20.7,1035.72,36.85Z"/><path class="cls-4" d="M1035.72,36.85c0,16.14-5.9,29.23-13.18,29.23S1009.36,53,1009.36,36.85s5.9-29.24,13.18-29.24S1035.72,20.7,1035.72,36.85Z"/><path class="cls-6" d="M1048.92,52.5c0,15.5-5.61,28.07-12.52,28.07S1023.88,68,1023.88,52.5s5.6-28.07,12.52-28.07S1048.92,37,1048.92,52.5Z"/><path class="cls-4" d="M1048.92,52.5c0,15.5-5.61,28.07-12.52,28.07S1023.88,68,1023.88,52.5s5.6-28.07,12.52-28.07S1048.92,37,1048.92,52.5Z"/><path class="cls-3" d="M1062.37,68.41c0,14.88-5.33,26.94-11.9,26.94s-11.89-12.06-11.89-26.94,5.33-27,11.89-27S1062.37,53.53,1062.37,68.41Z"/><path class="cls-4" d="M1062.37,68.41c0,14.88-5.33,26.94-11.9,26.94s-11.89-12.06-11.89-26.94,5.33-27,11.89-27S1062.37,53.53,1062.37,68.41Z"/><path class="cls-5" d="M1076.08,84.57c0,14.29-5.06,25.87-11.3,25.87s-11.3-11.58-11.3-25.87,5.06-25.87,11.3-25.87S1076.08,70.29,1076.08,84.57Z"/><path class="cls-4" d="M1076.08,84.57c0,14.29-5.06,25.87-11.3,25.87s-11.3-11.58-11.3-25.87,5.06-25.87,11.3-25.87S1076.08,70.29,1076.08,84.57Z"/><path class="cls-6" d="M1090,101c0,13.71-4.8,24.83-10.73,24.83s-10.73-11.12-10.73-24.83,4.8-24.83,10.73-24.83S1090,87.28,1090,101Z"/><path class="cls-4" d="M1090,101c0,13.71-4.8,24.83-10.73,24.83s-10.73-11.12-10.73-24.83,4.8-24.83,10.73-24.83S1090,87.28,1090,101Z"/></g></g><g id="Lake"><rect class="cls-7" x="-1.5" width="1080" height="1080"/><rect class="cls-5" x="-1.5" width="453.08" height="413.65"/><rect class="cls-8" x="46.72" y="51.26" width="453.08" height="413.65"/><rect class="cls-5" x="94.95" y="102.51" width="453.08" height="413.65"/><rect class="cls-8" x="143.17" y="153.77" width="453.08" height="413.65"/><rect class="cls-5" x="191.4" y="205.03" width="453.08" height="413.65"/><rect class="cls-8" x="239.62" y="256.29" width="453.08" height="413.65"/><rect class="cls-5" x="287.85" y="307.54" width="453.08" height="413.65"/><rect class="cls-8" x="336.07" y="358.8" width="453.08" height="413.65"/><rect class="cls-5" x="384.3" y="410.06" width="453.08" height="413.65"/><rect class="cls-8" x="432.52" y="461.32" width="453.08" height="413.65"/><rect class="cls-5" x="480.75" y="512.57" width="453.08" height="413.65"/><rect class="cls-8" x="528.97" y="563.83" width="453.08" height="413.65"/><rect class="cls-3" x="577.19" y="615.09" width="453.08" height="413.65"/></g></svg>