<svg id="Artboard1" xmlns="http://www.w3.org/2000/svg" viewBox="0 0 1080 1080"><defs><style>.cls-1{fill:#161513;}.cls-2{fill:#090916;}.cls-2,.cls-3{stroke:#161513;}.cls-2,.cls-3,.cls-8{stroke-miterlimit:10;}.cls-3,.cls-6{fill:#d874a2;}.cls-4{fill:#deb959;}.cls-5{fill:#ed7e5f;}.cls-7{fill:#9783b7;}.cls-8{fill:#d54444;stroke:#ed7e5f;}</style></defs><title>Artboard 1</title><g id="BG"><polygon class="cls-1" points="1080 259.78 1080 0 0 0 0 517.91 995.94 72.02 1080 259.78"/><polygon class="cls-2" points="-0.5 810.35 -0.5 1080.5 1079.5 1080.5 1079.5 326.82 -0.5 810.35"/><polygon class="cls-3" points="1080.5 259.78 996.44 72.02 0.5 517.91 0.5 810.35 1080.5 326.82 1080.5 259.78"/></g><g id="Tree"><g id="JoinedLevels"><rect class="cls-4" x="434.01" y="200.4" width="60" height="16"/><rect class="cls-4" x="588.9" y="200.4" width="60" height="16"/><rect class="cls-4" x="279.12" y="200.4" width="60" height="16"/><rect class="cls-5" x="743.78" y="200.4" width="60" height="16"/><rect class="cls-5" x="899.05" y="200.4" width="60" height="16"/><rect class="cls-4" x="124.08" y="200.4" width="60" height="16"/><rect class="cls-4" x="434.01" y="65.05" width="60" height="16"/><rect class="cls-4" x="588.9" y="65.05" width="60" height="16"/><rect class="cls-4" x="279.12" y="65.05" width="60" height="16"/><rect class="cls-4" x="743.78" y="65.05" width="60" height="16"/><rect class="cls-4" x="899.05" y="65.05" width="60" height="16"/><rect class="cls-4" x="124.08" y="65.05" width="60" height="16"/><rect class="cls-4" x="433.84" y="877.15" width="60" height="16"/><rect class="cls-4" x="588.61" y="877.15" width="60" height="16"/><rect class="cls-4" x="434.01" y="741.8" width="60" height="16"/><rect class="cls-4" x="588.9" y="741.8" width="60" height="16"/><rect class="cls-4" x="279.12" y="741.8" width="60" height="16"/><rect class="cls-4" x="743.78" y="741.8" width="60" height="16"/><rect class="cls-4" x="588.9" y="606.45" width="60" height="16"/><rect class="cls-5" x="279.12" y="606.45" width="60" height="16"/><rect class="cls-4" x="743.78" y="606.45" width="60" height="16"/><rect class="cls-4" x="899.05" y="606.45" width="60" height="16"/><rect class="cls-5" x="124.08" y="606.45" width="60" height="16"/><rect class="cls-5" x="434.01" y="471.1" width="60" height="16"/><rect class="cls-5" x="588.9" y="471.1" width="60" height="16"/><rect class="cls-5" x="279.12" y="471.1" width="60" height="16"/><rect class="cls-4" x="899.05" y="471.1" width="60" height="16"/><rect class="cls-5" x="124.08" y="471.1" width="60" height="16"/><rect class="cls-5" x="434.01" y="335.75" width="60" height="16"/><rect class="cls-5" x="588.9" y="335.75" width="60" height="16"/><rect class="cls-4" x="279.12" y="335.75" width="60" height="16"/><rect class="cls-5" x="743.78" y="335.75" width="60" height="16"/><rect class="cls-5" x="899.05" y="335.75" width="60" height="16"/><rect class="cls-4" x="124.08" y="335.75" width="60" height="16"/><polygon class="cls-4" points="433 623 493 623 493 607 455.93 607 433 616.26 433 623"/><polygon class="cls-4" points="743 477.57 743 488 803 488 803 472 758.24 472 743 477.57"/><polygon class="cls-5" points="433 616.26 455.93 607 433 607 433 616.26"/><polygon class="cls-5" points="743 472 743 477.57 758.24 472 743 472"/></g><g id="Nodes"><circle class="cls-6" cx="386.45" cy="885.15" r="24"/><circle class="cls-6" cx="541.23" cy="885.15" r="24"/><circle class="cls-6" cx="696" cy="885.15" r="24"/><circle class="cls-6" cx="386.57" cy="749.8" r="24"/><circle class="cls-6" cx="541.45" cy="749.8" r="24"/><circle class="cls-6" cx="696.34" cy="749.8" r="24"/><circle class="cls-6" cx="851.23" cy="749.8" r="24"/><circle class="cls-6" cx="76.45" cy="343.75" r="24"/><circle class="cls-6" cx="231.66" cy="343.75" r="24"/><path class="cls-6" d="M386.61,319.75a24,24,0,0,0-21.36,34.93L409,335.1A24,24,0,0,0,386.61,319.75Z"/><path class="cls-7" d="M386.61,367.75A24,24,0,0,0,409,335.1l-43.75,19.59A24,24,0,0,0,386.61,367.75Z"/><circle class="cls-7" cx="541.57" cy="343.75" r="24"/><circle class="cls-7" cx="696.52" cy="343.75" r="24"/><circle class="cls-7" cx="851.47" cy="343.75" r="24"/><path class="cls-6" d="M1006.17,367.75A24,24,0,0,0,1029.35,350l-34,15.23A23.89,23.89,0,0,0,1006.17,367.75Z"/><path class="cls-7" d="M1006.17,319.75a24,24,0,0,0-10.78,45.44l34-15.23a24,24,0,0,0-23.18-30.21Z"/><circle class="cls-6" cx="75.93" cy="208.4" r="24"/><circle class="cls-6" cx="230.62" cy="208.4" r="24"/><circle class="cls-6" cx="385.57" cy="208.4" r="24"/><circle class="cls-6" cx="540.53" cy="208.4" r="24"/><path class="cls-6" d="M695.48,184.4A24,24,0,0,0,673,216.9l43.73-19.58A24,24,0,0,0,695.48,184.4Z"/><path class="cls-7" d="M695.48,232.4a24,24,0,0,0,21.29-35.08L673,216.9A24,24,0,0,0,695.48,232.4Z"/><circle class="cls-7" cx="850.43" cy="208.4" r="24"/><circle class="cls-7" cx="1005.65" cy="208.4" r="24"/><circle class="cls-6" cx="76.19" cy="73.05" r="24"/><circle class="cls-6" cx="231.66" cy="73.05" r="24"/><circle class="cls-6" cx="386.61" cy="73.05" r="24"/><circle class="cls-6" cx="541.57" cy="73.05" r="24"/><circle class="cls-6" cx="696.52" cy="73.05" r="24"/><circle class="cls-6" cx="851.47" cy="73.05" r="24"/><path class="cls-6" d="M1007.57,97A24,24,0,1,0,982.5,78.36l13.94-6.24Z"/><path class="cls-7" d="M1005.91,97.05c.56,0,1.11,0,1.66-.06L996.44,72.12,982.5,78.36A24,24,0,0,0,1005.91,97.05Z"/><circle class="cls-7" cx="76.71" cy="614.45" r="24"/><circle class="cls-7" cx="231.66" cy="614.45" r="24"/><path class="cls-6" d="M386.61,638.45a24,24,0,0,0,18.9-9.21l-20.46,9.16C385.57,638.43,386.09,638.45,386.61,638.45Z"/><path class="cls-7" d="M386.61,590.45a24,24,0,0,0-1.56,47.94l20.46-9.16a24,24,0,0,0-18.9-38.79Z"/><circle class="cls-6" cx="541.57" cy="614.45" r="24"/><circle class="cls-6" cx="696.52" cy="614.45" r="24"/><circle class="cls-6" cx="1006.43" cy="614.45" r="24"/><path class="cls-6" d="M75.67,455.1a24,24,0,0,0-19.52,38l42.93-19.22A24,24,0,0,0,75.67,455.1Z"/><path class="cls-7" d="M75.67,503.1a24,24,0,0,0,23.41-29.26L56.15,493.06A24,24,0,0,0,75.67,503.1Z"/><circle class="cls-7" cx="230.62" cy="479.1" r="24"/><circle class="cls-7" cx="385.57" cy="479.1" r="24"/><circle class="cls-7" cx="540.53" cy="479.1" r="24"/><path class="cls-6" d="M695.48,503.1a24,24,0,0,0,21.69-13.72l-28.45,12.75A24,24,0,0,0,695.48,503.1Z"/><path class="cls-7" d="M695.48,455.1a24,24,0,0,0-6.76,47l28.45-12.75a24,24,0,0,0-21.69-34.28Z"/><circle class="cls-6" cx="850.43" cy="479.1" r="24"/><circle class="cls-6" cx="1005.39" cy="479.1" r="24"/><circle class="cls-6" cx="851.47" cy="614.45" r="24"/><circle class="cls-6" cx="231.66" cy="749.8" r="24"/></g></g><g id="Start"><circle class="cls-5" cx="539.16" cy="1020.5" r="44.5"/><circle class="cls-8" cx="540" cy="1003.5" r="22.25"/></g></svg>