<svg xmlns="http://www.w3.org/2000/svg" viewBox="0 0 1080 1080"><defs><style>.cls-1,.cls-5{fill:#090916;}.cls-1,.cls-10{stroke:#161513;}.cls-1,.cls-10,.cls-7,.cls-9{stroke-miterlimit:10;}.cls-2{fill:#ed7e5f;}.cls-3{fill:#d54444;}.cls-4{fill:#deb959;}.cls-6{fill:#d874a2;}.cls-10,.cls-7,.cls-9{fill:none;}.cls-7{stroke:#090916;}.cls-8{fill:#2a2447;}.cls-9{stroke:#2a2447;}</style></defs><title>Artboard 5</title><g id="DanHarvs"><rect class="cls-1" x="1.5" width="1080" height="1080"/><path class="cls-2" d="M248.87,719c14.28,4.67,30.78-56.69,78-81,7.1-3.67,36.21-17.5,66-9,59.92,17.07,55.66,105.36,108,117,39.28,8.74,75.8-33.4,78-36,34.77-41.18,20.55-93.35,18-102-10.72-36.43-36.88-56.85-45-63-32.76-24.85-50.55-13.84-111-39-37-15.4-69.67-29.51-75-57-2.91-15,2.48-32.94,12-45,11-13.95,20.43-11,33-24,21-21.7,18.29-54.25,21-54,2.94.27-6.46,37.4,9,72,9.79,21.9,33.11,50.8,60,51,24.89.19,31.22-24.35,60-24,19.58.23,18.87,11.62,45.09,15,28.68,3.7,60.09-6,60.09-6,0-3.55-.6-4.52.81-17.75a45.67,45.67,0,0,0,.41-9.18C666.95,403.06,666,398,666,398s2.89-3.18,41.84,17.86c21.67-16.48,28.6-19.47,30-18,2.32,2.42-12,15.28-7.84,26.14,2.2,5.76,9.44,10.55,16,10,12.51-1,12.72-20.65,29-28,12.73-5.75,30.75-2,34,6,4.59,11.22-23.31,23.09-22,40,1.59,20.51,45.81,44.27,82,36,52.56-12,84.8-90.79,74-147-3.92-20.43-14-40.31-26-64-17.5-34.55-31.23-35.58-36-59-4.24-20.86-2.59-57.23,17-71,5.48-3.85,13.55-6.77,16-15,2.17-7.29-2.3-11.19-1-21,1-7.24,3.65-7,9-19,3.48-7.77,1.73-6.49,9-32,2.77-9.73,3.84-12.78,2-16-2.9-5.08-10.86-6.83-17-6-8.87,1.2-9.84,7.24-24,16-9.92,6.14-11.22,4.28-19,10-10,7.38-8.34,10.82-17,17-10.39,7.41-22.24,9.15-28,10-10.25,1.51-13.64-.15-22,3s-7.19,5.69-14,8c-11.4,3.87-16.86-2.48-32,0-6.65,1.09-5.5,2.3-13,4-18.12,4.1-24.77-3-45-1-11.76,1.14-9.79,3.56-20,4-8.84.38-14.07-1.27-35-7-18.94-5.18-28.41-7.77-30-8-15-2.14-23.35-.4-33-7a36.6,36.6,0,0,1-9-9c-22.32-29.74-36.52-48.65-56-57-3.59-1.54-22.2-9.51-34-1-9.76,7-10,21.82-10,30-.08,43.4,32.85,53.43,31,92-.35,7.33-1.37,3.36-9,41-2.16,10.65-3.56,18.27-10,25-5.12,5.35-10.86,7.46-18,10-12.19,4.34-22.44,8.65-33,5-6.36-2.2-8.54-5.71-14-5-5.67.74-8.17,5.15-12,8-8.19,6.09-15.31,0-35-1-7.87-.38-17.58,1.08-37,4-10.24,1.54-16,2.78-22,7-6.73,4.78-5.58,7.64-11,11-10.43,6.46-19.53-1.17-33,2-4.41,1-6.54,2.58-23,17-23.68,20.74-35.52,31.11-39,35-14.8,16.52-15.68,22.73-25,25-10.66,2.6-18-3.46-26,2-6.39,4.36-3.66,9.57-10,15-9,7.7-19.05,1.2-31,7-9,4.36-11.53,12-17,21-14.3,23.45-29.66,24.65-50,44-19.92,18.94-28.45,39.91-35,56C-.36,511.2-12.52,583.87,25,619c10.25,9.6,21,13.37,37,19,41.79,14.69,76.89,6.38,94,26a56.69,56.69,0,0,0,13,12c9.08,5.92,18.32,7.86,24,9,13.14,2.64,14.43-.11,23,3,9.08,3.3,15,9.09,19,13C245.85,711.73,244.51,717.53,248.87,719Z"/><path class="cls-2" d="M794,626c6.13-2.25,15.12-6.84,55-55,11-13.34,14-17.36,20-18,16.29-1.72,24.06,24.64,42,25,12.55.25,22-12.38,33-27,24.55-32.73,24.07-60.19,43-65,1.8-.46,7.25-1.84,11,1,6.76,5.13,0,18,1,36,.65,11.89,3.76,9.59,16,45,5.52,16,10.08,31.47,12,38,6.19,21.05,5.21,20.31,8,27,6,14.37,11.08,19.13,10.7,29a33,33,0,0,1-6.7,18c-11.74,15.7-36,18.66-47,20-10.17,1.24-16.92.61-24,6-4.12,3.14-7.84,7.93-11,12-7.42,9.56-7.3,12.42-10,13-6.84,1.46-9.92-16.49-26-31-17.81-16.08-32.8-11-43-28-4.35-7.25-2.54-9.7-8-17-8-10.71-19-14.93-27-18-10.89-4.18-22.92-8.8-36-5-11.9,3.45-13.6,10.66-24,11-10.9.36-21.72-7.13-21-11C762.8,627.69,777.1,632.21,794,626Z"/><path class="cls-3" d="M682,433c1.37,4.58,5.29,12.23,11,13,4.35.58,8-3.07,14-9s5.43-7.68,11-13c6.23-5.95,8.32-5.12,12.84-10.22,4.93-5.57,9-14,7-15.92C734.67,394.78,721.65,413,704,411c-8.76-1-20.31-6.24-24-8-7.92-3.77-11.23-6.57-14-5-4.14,2.35-4.8,13.15,0,18,4.32,4.37,10.43,1.34,14,6C682.32,425,680.24,427.1,682,433Z"/><path class="cls-4" d="M206.79,826.9c-15.77,19.7-27.09,20.92-69,51-15.92,11.43-24,17.28-30,24-7.22,8.09-25.61,28.71-27,60-1.08,24.34,8.7,42.16,12,48,12.63,22.33,30.93,32.84,42,39,11.59,6.45,30.31,16.88,54,15,7.09-.56,19.73-5.37,45-15,17.13-6.52,25.69-9.78,36-15,21-10.61,19.57-13.62,36-21,21.76-9.77,26.73-5.61,39-15,8.66-6.63,13.14-14,21-27,5.7-9.41,11.61-19.16,15-33s.23-15.35,3-36c1.68-12.54,3.19-23.79,9-36,7-14.83,16.94-23.76,24-30,21.25-18.79,33.94-16.8,48-33,11.18-12.89,5-19.26,15-30,17.25-18.53,40.21-9.88,45-21,1.77-4.1,2-13.19-54-66-35.22-33.19-43.15-37-48-39-22.18-9.29-42-8-72-6-28.57,1.89-42.86,2.83-57,12-18.58,12-27.53,30.51-36,48-4.64,9.58-8.09,20.39-15,42-9.32,29.18-10,37.3-18,54C221.09,804.66,216,815.45,206.79,826.9Z"/><path class="cls-5" d="M403.6,545.06c1.26-2.08-34.25-30-84-48a26.18,26.18,0,0,0-3.53-1c-4.87-1.44-10.74-2.08-67-15.08h0c-46.29-15-83.7-20.92-128.61-21.21-3.09,0-3-.09-6.38-.12-38.38-.35-66-5.89-66-6.05s17.49,2.17,101.55,14.07c0,0,36,5.6,78.67,14,32.4,6.36,48.6,9.54,64.67,14C362.24,514.88,402.25,547.28,403.6,545.06Z"/><path class="cls-4" d="M178.33,485c-2-.63-17.41,27.63-22.67,59.33C143.75,616.24,187.91,683.9,190.33,683c1-.36-4.94-11.85-12-44C171.18,606.42,164,572.51,169,531.67,172.4,503.78,179.89,485.5,178.33,485Z"/><path class="cls-4" d="M271,494.33c-1.81-.4-15.17,44.69-23.33,95.33a689.5,689.5,0,0,0-7.36,69.21c-.82,14.31-2.15,45.34-.64,45.46,1.81.15,5.2-44.23,15.33-112C264.65,527.81,272.55,494.68,271,494.33Z"/><path class="cls-4" d="M118.33,655c-4.65.53-12.7-76.82-8.67-98.67.91-4.95,2.09-10.07,2.09-10.07.33-1.43,2.78-12,6.58-23.26,5.76-17.09,16.26-40.63,18-40,1.58.58-5.28,20.65-10,39.33C107.26,597.86,122.35,654.54,118.33,655Z"/><path class="cls-4" d="M743.84,781.9c.31-8.26,1.82-14.87,4.83-28.07,5-21.91,8.66-27.78,13.18-43.94,11.32-40.5,1.67-51.53,15-66,12.06-13.09,29.74-14.7,33-15,15.92-1.45,27.92,4.79,36,9,3.54,1.84,7.63,4.29,30,24,11.84,10.43,12,10.93,30,27,0,0,3.36,3,27,24h0s17.81,14.63,21,30c2.71,13.07-7.3,16.36-12,36-6.74,28.19,9.33,40.4,0,54-5.43,7.92-11.89,5.27-45,15-32.3,9.49-32.09,13.76-48,15-17.78,1.39-31.45-2.89-51-9-20.9-6.53-31.35-9.8-39-18C742.46,818.36,743.45,792.31,743.84,781.9Z"/><path class="cls-4" d="M594.09,624.56c6.27,1-3.11,32.32,11.74,55.33,12.67,19.63,43.64,33.47,69,27C714.1,696.88,729.6,640.8,762,632c1.43-.39,12.19-3.21,27-7.67,12.87-3.87,19.3-5.81,20.67-6.67,13-8.15,12.49-19.68,31.33-39.33,1.71-1.78,3.14-3.18,4-4q2-1.61,4-3.33a164.92,164.92,0,0,0,20.67-21.33C882.78,565,896,571.34,903.3,574.08c10.93,4.1,16.07,2.94,19,1.58,4.65-2.12,6.28-5.76,10.53-12.79,9.19-15.21,9.46-11.23,20.14-28.54,6.72-10.9,10.08-16.35,13.33-24,4.61-10.84,5-15.95,10.67-20.67,7.16-6,12.62-2.88,16-7.33,5.06-6.65-3-19-14-42-1.36-2.85-11.66-24.48-18.76-44.65-10.09-28.66-11.33-47.56-13.91-47.35-3.63.3,5.14,37.28-10.47,76.53-3.86,9.69-18.14,45.19-54.19,60.14-6.34,2.63-29.31,11.75-54.67,2.67-20.53-7.36-43.27-26.88-40.67-43.33,2.41-15.24,25.78-23,22.67-32.33-.82-2.45-3-3.65-6.67-5.67-7.83-4.31-18.79-5-27.33-.33-7,3.86-10.82,10.51-15.33,18.33-4.66,8.08-4.49,11.16-7.33,12-7.56,2.23-13.78-20.2-25.33-18.67-14.91,2-21,28.11-34,28.33-6.77.12-10.34-9.52-13.33-21-2.88-11-9.42-7.25-15.08-5.93-3.85.9-4.88,17.4-16.92,19.93-12.67,2.67-19.33,2.67-36,2.67-20.6,0-23.88-5.23-34.67-12.67-17.76-12.23-28-6.67-50,8.67-18.15,12.65-33.7,15.14-53.33,2.67-3.88-2.46-13.33-5.33-26-28-6.64-11.88-13-28.93-15.57-56.26-1-10.24,2-29.74-.29-30.22-4.68-1-3.57,33.58-15.47,43.15-27.56,22.17-26.31,20.2-38.53,34.86-8.75,10.5-12,30.7-13.47,39.14-2.59,14.41,11.82,28.73,14,30.67,12.82,11.36,19.44,12.09,38,21.33,24.08,12,30,16.48,51.76,26.06,13.77,6.08,15.55,1.6,46.5,7.5,25.86,4.93,38.79,7.39,49.5,16.5,16.47,14,20.69,34.65,22.5,43.5,3.76,18.38,31,108.67,4.5,123-8.55,4.61-12-1.21-25.5,4.5-24.08,10.16-28.59,37.2-40.77,35.84-5.37-.6-10.12-6.47-11.73-11.84-3.45-11.56,7.52-21.39,46.5-69,11.64-14.22,14.07-17.5,16.5-21C587.92,633,590.72,624,594.09,624.56Z"/><path class="cls-4" d="M61.33,640c-5.77,1.38-21.76-83.36-14.33-93a39.94,39.94,0,0,0,7.76-15.73h0c.16-.71.86-3.72,2-7.94C59,515,61,508.85,61.33,508c5-14.51,26.83-32.28,28.78-30.43,1.57,1.49-11.41,14.15-20.78,29.77C34.32,565.69,66.84,638.68,61.33,640Z"/><path class="cls-5" d="M648,462c0-.65,7-.73,22-2.5,7.89-.93,11-1.5,14-4,4.45-3.71,5.86-9.36,7-9s-1.09,6.35,2,9.5c1.34,1.37,2.21.68,5.5,2.5,3.56,2,3.46,3.29,6,4.5s3.84.52,9.5.5c3.68,0,10.43.24,10.5,1s-9.25,3.31-19.5,4c-8.61.58-12.49-.42-33-3C657,463.61,648,462.74,648,462Z"/><path class="cls-6" d="M502.59,170.08c8.76,4.38,18.6-11.09,42-22.5,33.76-16.46,58.88-6.5,63-18,2.65-7.39-7.22-13-28.5-40.5-25.7-33.22-22.74-39.84-39-51-15.93-10.93-40.49-19.5-40.5-19.5h0c6.14-1.52-13.73,1.33-18,6s-2,11.63,0,24c2.43,14.94-.36,7.2,3,34.5,3.43,27.88,5.09,25.8,10.5,60C498.27,163.13,498.35,168,502.59,170.08Z"/><path class="cls-6" d="M799.58,135.58c-.61-3.93.11-11.61,52.5-51,24.73-18.59,54-39,54-39s7-8.94,13.5-9c6.21-.06,11.48,8.06,13.5,13.5,2.92,7.87.87,15.09,0,18-2.49,8.33-6.63,10.19-12,19.5-4.11,7.12-5.37,12.42-7.5,19.5-8,26.48-13.94,30.71-21,54-9.61,31.7-5.33,46.25-12,48-8.54,2.24-14.12-22-42-45C815.78,145.3,801.27,146.49,799.58,135.58Z"/><path class="cls-3" d="M448.59,299.07c-1.71-5.09,3.88-10.13,12-21,9.54-12.78,6.6-11.82,12-18,9.41-10.76,21.33-15.12,28.5-18A72.09,72.09,0,0,1,515,237.67c14.28-2.84,20.72.88,37.33-.67,6.52-.6,6.58-1.27,15.33-2.67,31.14-5,54.18-.28,72,3.33,8.82,1.79,12.5,3.13,16,6,7.18,5.9,7.49,13.27,14.67,16,3.3,1.26,5.37.51,10.67,0,17.32-1.68,20,3.87,31.33,2,9.23-1.53,7-5.15,25.33-13.33,9.44-4.22,15.33-6.86,24-8s11,.39,24-1.33c3.59-.48,6.72-1,12-1.33a131.43,131.43,0,0,1,13.33,0c7.14.28,12.73.8,18,1.33,24.68,2.48,21.83,3.16,30,3.33,6.4.14,11.1-.21,18.67,1.33,4.76,1,7.94,1.66,11.33,4s5.71,6.31,10,14a81.39,81.39,0,0,1,6.67,14A89.79,89.79,0,0,1,909,289a86.67,86.67,0,0,1,2,13.33c.45,9-.83,18-2,18-1,0-.92-6.51-4.67-17.33a52.41,52.41,0,0,0-4-9.33c-2.48-4.41-3.6-4.71-8-10.67-5.9-8-6.85-11.46-9.33-11.33-2.13.11-3.61,2.79-5.33,6a43.55,43.55,0,0,0-4.67,14c-1.4,9.85-4.17,17.13-9.33,30.67-2.88,7.55-4.52,11.85-8,17.33a64.14,64.14,0,0,1-19.33,20c-9.42,6.1-18,7.81-26,9.33-7,1.32-29.1,5.23-52.67-4.67-7.13-3-13.68-5.84-18.67-12.67-4.77-6.53-6.77-14.88-8-20-1.61-6.74-1.13-8.74-3.33-14.67A64.55,64.55,0,0,0,721,304.33c-2.6-4.15-2.76-3.72-10.67-14.67-3.56-4.93-3.68-5.23-4.67-6a17.31,17.31,0,0,0-24,2.67c-3.64,4.31-3.38,8-5.33,14.67-.39,1.32-2.71,6.23-7.33,16-4.51,9.53-6.77,14.29-7.33,15.33-4.64,8.52-7.61,14-13.33,19.33a52.59,52.59,0,0,1-24.67,12.67c-2.72.58-8.07.84-18.67,1.33-11,.51-16.55.77-19.33.67-3.91-.14-21.18-.78-36.67-12-12.15-8.81-17.51-20-21.33-28-2.75-5.75-10.61-22.18-10-36.67.12-2.94.76-9.54-2-16-.68-1.59-3.33-7.33-3.33-7.33s-3.84-1.63-6.67-1.33-4.17,2.29-6,4c-3.16,3-4,1.93-16.67,7.33-10.65,4.55-11.92,6.09-12.67,7.33-2.11,3.48-.57,5.29-3.33,9.33-.67,1-.76.88-7.33,6.67-3.67,3.23-4.57,4.08-6,4C451.47,303.54,449.34,301.29,448.59,299.07Z"/><path class="cls-6" d="M531.67,275c2.26-8,5-12,7.33-14.67,1.7-1.93,5.67-6,14-9.33,10.3-4.15,18.94-3.91,34-3.33,12.24.47,7.43,1.3,34.67,4,7.58.75,13.74,1.26,21.33,4.67,3.61,1.62,8.79,4,13.33,9.33a34.59,34.59,0,0,1,7.33,16c2.53,11.62-.26,21.13-2.67,29.33a91.72,91.72,0,0,1-10,22c-3.2,5.4-4.91,8.28-8,11.33C636.22,351,628.37,353,620.33,355a93.2,93.2,0,0,1-41.33.67C571.72,354,562.66,352,553,345a60.9,60.9,0,0,1-20.67-26.67C524.77,299.27,529.47,282.71,531.67,275Z"/><path class="cls-6" d="M732.33,280.33c1.05-3.9,2.46-8.88,6.67-13.33,2.93-3.09,5.8-4.45,10.67-6.67,3.22-1.47,8.26-3.51,22-6.67,8.3-1.91,12.46-2.86,16.67-3.33,7.5-.84,12.89-.53,22,0,6.9.4,2.78.48,22.67,2.67,6.62.73,10.37,1.08,14,4,2.07,1.66,3.38,3.78,6,8,2.49,4,4.68,7.55,6,12,1,3.39,1.38,6.88.67,15.33-1,11.54-1.46,17.32-4,24.67a75.26,75.26,0,0,1-14,24c-5.86,7.16-8.78,10.73-14,13.33-4.48,2.23-6.85,2-25.33,4.67-12.92,1.88-11.48,2-13.33,2-13,.28-22.8-5.07-30.67-9.33-7.56-4.1-13.28-7.21-18-14-3.15-4.53-4.36-8.57-6-14-2.89-9.59-3.13-17.27-3.33-25.33C730.81,290.69,730.74,286.26,732.33,280.33Z"/><path class="cls-7" d="M553,288.33c1.5-4.86,4.45-11.35,10.67-15.33,2-1.28,2.63-1.21,10.67-4,13.43-4.66,14.29-5.75,19.33-6.67,4.85-.88,8.57-.59,16,0,11.23.89,19,1.51,28,5.33a60.53,60.53,0,0,1,20,14"/><path class="cls-7" d="M831.67,299A57.3,57.3,0,0,0,813,280.33c-6-3.65-11.42-5.31-18-7.33a77.66,77.66,0,0,0-20-4c-5.35-.29-10.75-.58-17.33,1.33,0,0-3.81,1.11-18.67,9.33h0l-9.33,6.67"/><path class="cls-4" d="M571,281.67a77.07,77.07,0,0,1,19.33-6,91.08,91.08,0,0,1,20-2c15.86.35,27.74,5.26,32.67,8,3.11,1.73,7.14,4.64,7.31,4.76,3.69,2.68,5.54,4,5.36,4.57-.57,1.79-12.61-1.94-31.33-2.67-4.2-.16-2.05.09-14,0-20.09-.14-18.62-.79-30-.67s-17,.8-17.33-.67S567.64,283.24,571,281.67Z"/><path class="cls-4" d="M733,295.67c-.91-2.5,12.65-9.56,17.33-12,5.76-3,8.72-4.51,12.67-5.33,6-1.24,10.62-.49,17.33.67A94.71,94.71,0,0,1,801,285c11.26,4.77,23.56,12.5,22.67,14.67-.44,1.07-6.07.27-17.33-1.33-4.31-.61-7.18-1.1-8.67-1.33A177.9,177.9,0,0,0,769,295c-13.33,0-23.33.67-23.33.67C737.27,296.26,733.46,296.92,733,295.67Z"/><path class="cls-8" d="M584.5,286c-1.7-2-1.49-5.62,0-8,1.81-2.89,5.73-3.52,13.5-4.67,2.64-.39,7.1-.48,16-.67,3.73-.08,7-.1,10,2a7.92,7.92,0,0,1,2.67,3,8.12,8.12,0,0,1-1,8.33c-1.52,1.77-4.7,1.87-11,2-36.18.75-8.42-.34-22-.33C588.42,287.67,586,287.77,584.5,286Z"/><path class="cls-8" d="M760,293.67c-1.11-1.15-.94-3-.67-5.33.36-3.2.66-5.87,2.33-7.67,1.09-1.17,2.76-2,11.33-1.67a82.31,82.31,0,0,1,21,3.33c3.69,1.08,5.23,1.79,6.33,3.33,2.62,3.65,1.48,10.08-1.33,11.33-1.68.75-2.62-.94-6.67-1.67s-4.58.69-10.33.67c-4.52,0-4-.89-9.67-1-2.56-.05-5.11-.24-7.67-.33S760.86,294.55,760,293.67Z"/><path class="cls-9" d="M511.67,471.67c0-15.85,41.15-28.67,92-28.67"/><path class="cls-9" d="M495.67,463c0-15.48,48.6-28,108.67-28"/><path class="cls-9" d="M487,458.33C487,442.12,538.29,429,601.67,429"/><path class="cls-9" d="M478.33,449c0-16.58,57.85-30,129.33-30"/><path class="cls-9" d="M473,441c0-16.58,60.53-30,135.33-30"/><path class="cls-9" d="M461.67,427c0-11.42,63.81-20.67,142.67-20.67"/><path class="cls-9" d="M450.33,415.67c0-8.11,71.26-14.67,159.33-14.67"/><path class="cls-9" d="M457,403c0-4.42,66.49-8,148.67-8"/><path class="cls-10" d="M860.33,493c0-24-47.11-43.33-105.33-43.33"/><path class="cls-10" d="M868.33,481c0-22.48-51.29-40.67-114.67-40.67"/><path class="cls-10" d="M883,469.67c0-20.64-59.34-37.33-132.67-37.33"/><path class="cls-10" d="M899,454.33C899,438.12,833.7,425,753,425"/><path class="cls-10" d="M903.67,436.33c0-11.05-66.49-20-148.67-20"/><path class="cls-10" d="M921,419.67c0-6.26-72.46-11.33-162-11.33"/></g></svg>