<svg xmlns="http://www.w3.org/2000/svg" viewBox="0 0 1080 1080"><defs><style>.cls-1{fill:#2a2447;}.cls-1,.cls-8{stroke:#161513;stroke-miterlimit:10;}.cls-2{fill:#9783b7;}.cls-3,.cls-8{fill:none;}.cls-4{fill:#deb959;}.cls-5{fill:#d54444;}.cls-6{fill:#090916;}.cls-7{fill:#ed7e5f;}</style></defs><title>Artboard 4</title><g id="Clock"><rect class="cls-1" x="-0.5" width="1080" height="1080"/><g id="Shadows"><rect class="cls-2" x="533.37" y="37" width="22.25" height="422"/><rect class="cls-2" x="533.37" y="633" width="22.25" height="422"/><rect class="cls-2" x="235.38" y="335" width="22.25" height="422" transform="translate(-299.5 792.5) rotate(-90)"/><rect class="cls-2" x="831.37" y="335" width="22.25" height="422" transform="translate(296.5 1388.5) rotate(-90)"/><rect class="cls-2" x="682.29" y="76.78" width="22.25" height="422" transform="translate(1150.04 883.7) rotate(-150)"/><rect class="cls-2" x="384.35" y="76.84" width="22.25" height="422" transform="matrix(0.87, -0.5, 0.5, 0.87, -90.94, 236.3)"/><rect class="cls-2" x="682.35" y="592.99" width="22.25" height="422" transform="matrix(0.87, -0.5, 0.5, 0.87, -309.08, 454.45)"/><rect class="cls-2" x="275.28" y="483.91" width="22.25" height="422" transform="translate(-172.21 1290.4) rotate(-120)"/><rect class="cls-2" x="791.43" y="185.91" width="22.25" height="422" transform="translate(860.09 1290.4) rotate(-120)"/><rect class="cls-2" x="275.22" y="185.85" width="22.25" height="422" transform="matrix(0.5, -0.87, 0.87, 0.5, -200.51, 446.4)"/><rect class="cls-2" x="791.36" y="483.85" width="22.25" height="422" transform="translate(-200.51 1042.4) rotate(-60)"/><rect class="cls-2" x="384.29" y="592.92" width="22.25" height="422" transform="translate(335.89 1697.85) rotate(-150)"/></g><g id="Flames"><path class="cls-3" d="M833.13,438.57c15.7-17.74,16.9-41.32,15.34-64.21L707.42,455.8C762.6,464.92,808.8,466.08,833.13,438.57Z"/><path class="cls-3" d="M504.61,381.57c.69,10.34,9.39,19.3,23.39,27V354.17C514,362.37,503.86,370.2,504.61,381.57Z"/><path class="cls-4" d="M30,529v22H52.24c-1-7-1.59-15-1.92-22Z"/><path class="cls-5" d="M451,530H50.33c.32,7,.95,15,1.92,22H451Z"/><path class="cls-4" d="M528,408.61a215.1,215.1,0,0,0,22,10.27V342.3c-8,4.28-15,8.11-22,11.86Z"/><path class="cls-4" d="M550,31H528v92.34a113.09,113.09,0,0,1,22-7.88Z"/><path class="cls-5" d="M527,454h22V418.88a215.1,215.1,0,0,1-22-10.27Z"/><path class="cls-5" d="M549,342.3V115.46a113.09,113.09,0,0,0-22,7.88V354.17C534,350.41,541,346.58,549,342.3Z"/><path class="cls-4" d="M528,1049h22V824.44c-7,6.88-15,13.65-22,19.67Z"/><path class="cls-5" d="M527,628V844.11c7-6,15-12.79,22-19.67V628Z"/><path class="cls-4" d="M1048,529h-16.57c-.12,7-.52,15-1.2,22H1048Z"/><path class="cls-5" d="M625,530v22h405.23c.68-7,1.08-15,1.2-22Z"/><path class="cls-4" d="M92.81,784.95l11.13,19.27,159.61-92.15a271.78,271.78,0,0,0-28.91-9Z"/><path class="cls-5" d="M458.28,573.95,234.64,703.06a271.78,271.78,0,0,1,28.91,9L469.4,593.22Z"/><path class="cls-4" d="M425.12,320.28,294.32,93.72,275,104.84,426.36,366.92C427.93,355.82,426.29,339.53,425.12,320.28Z"/><path class="cls-5" d="M505.32,459.18l-80.2-138.9c1.16,19.25,2.81,35.55,1.24,46.64L486,470.3Z"/><path class="cls-4" d="M784,986.45l19.27-11.12L690.59,780.08a119.25,119.25,0,0,0-27.71-3.49Z"/><path class="cls-5" d="M573,621l89.84,155.6a119.25,119.25,0,0,1,27.71,3.49L592.31,609.86Z"/><path class="cls-4" d="M848.47,374.36c-.57-8.33-1.49-16.57-2.23-24.41L673.66,449.6c11.54,2.27,22.83,4.39,33.76,6.2Z"/><path class="cls-4" d="M985.55,295.22l-11.12-19.27-57.74,33.34a198.14,198.14,0,0,1,21.38,13.35Z"/><path class="cls-5" d="M938.06,322.64a198.14,198.14,0,0,0-21.38-13.35L846.25,350c.73,7.84,1.66,16.08,2.23,24.41Z"/><path class="cls-5" d="M620.09,506.22l87.34-50.42c-10.94-1.81-22.22-3.93-33.76-6.2L609,486.95Z"/><path class="cls-4" d="M275.11,975.39l19.27,11.13,102-176.6c-4.75-5.65-9.86-11.55-15.51-17.63Z"/><path class="cls-5" d="M486.11,609.93,380.83,792.28c5.65,6.08,10.77,12,15.51,17.63l109-188.86Z"/><path class="cls-4" d="M104,276,92.88,295.28,300,414.88c1.51-7.72,2.82-15.61,4.16-23.29Z"/><path class="cls-5" d="M469.46,487,304.18,391.59c-1.34,7.68-2.65,15.57-4.16,23.29l158.32,91.41Z"/><path class="cls-4" d="M974.49,804.28,985.61,785l-66.77-38.55q-10.11,7.32-20.76,13.71Z"/><path class="cls-5" d="M609,593.28,898.08,760.17q10.63-6.37,20.76-13.71L620.15,574Z"/><path class="cls-4" d="M803.38,104.9,784.11,93.78,589.3,431.19c7.57,2,15.14,3.85,22.5,5.53Z"/><path class="cls-5" d="M592.38,470.37l19.42-33.64c-7.35-1.69-14.93-3.53-22.5-5.53l-16.2,28.05Z"/></g><g id="SubEdges"><path class="cls-3" d="M254.33,476l-20.83-5.58C240.64,473.69,247.61,475.73,254.33,476Z"/><path class="cls-6" d="M622.5,275.08c7.58-15.9,11.76-34,12.86-52.15l-15.22,56.8C620.95,278.2,621.74,276.66,622.5,275.08Z"/><path class="cls-6" d="M916.68,309.29c-22.8-12.2-45.65-17.79-59.55-8.71-13.41,8.75-12.92,27.49-10.88,49.38Z"/><path class="cls-6" d="M627.5,163.37c-7.07-19.95-18.56-36.15-33.82-44.28-12.78-6.8-28.68-7.48-44.68-3.62V342.3c11.83-6.24,24.63-13.43,36.65-22.73Z"/><path class="cls-6" d="M1031.43,530c1.15-72-23.88-141.85-67.8-185.36a211.9,211.9,0,0,0-25.57-21.72L848.47,374.5c1.56,22.89.35,46.39-15.34,64.14-7.84,8.86-18,14.73-29.9,18.33l121.36-32.52,6,22.22L740.42,497.61l-6-22.22,63.18-16.93c-24.39,5.7-55.53,3.1-90.22-2.63l-87.34,50.41L609,487l64.7-37.36c-8.22-1.62-16.57-3.32-25-5-10.53-2.14-23.31-4.73-36.84-7.84l-19.42,33.64-19.27-11.13,15.55-28.05c-13.49-3.57-27.66-7.66-39.66-12.32V454H527V408.61c-14-7.74-22.7-16.69-23.39-27-.75-11.37,9.39-19.21,23.39-27.41V123.34c-27.15,12.43-53.36,35-71.9,61l41.26,154-22.22,6L438.82,212.46c-16.69,37.25-15.86,76.44-14,107.81l80.32,138.9L486,470.3,426.33,366.92c-1.06,7.48-3.56,12.61-8.69,14.65-17.82,7.11-41.85-32.82-66.57-45.16l50.14,50.14-16.26,16.26-63.06-63.06c-9.81,10.14-13.92,30.17-17.71,51.84L469.46,487l-11.12,19.27L300,414.88c-3.37,17.28-7.77,33.74-15.87,45.26l58.76,15.74-6,22.22L254.33,476c-6.72-.22-13.69-2.26-20.83-5.58l-86.67-23.22,6-22.22,27.68,7.42c-29-24.06-57.86-47.38-82.29-38.21C67.93,405.47,47.54,466,50.33,530H451v22H52.24c4.89,38,18.3,74.15,42.92,101.5,38.88,43.18,81.49,35.15,139.47,49.79L458.28,574.06l11.13,19.21L263.55,712.09a286.17,286.17,0,0,1,57.57,29.63l64.18-64.18,16.26,16.26-61.42,61.42a322,322,0,0,1,40.69,37.06L486.11,609.93l19.27,11.12-109,188.86C413.69,830.54,426,847.7,442,857.43l32.58-121.59,22.22,6L463.76,865.27a70.88,70.88,0,0,0,8.87.78c22.88.59,38.37-8.91,54.37-21.94V628h22V824.44c12.81-11.33,27.22-23,45.75-32l-13.61-50.78,22.22-6,12.91,48.19A165.85,165.85,0,0,1,636,779.05a143.54,143.54,0,0,1,26.56-2.46L572.88,621l19.35-11.12,98.31,170.22c26,6.24,47.4,18.52,89.36,17L676.29,693.45l16.26-16.26L809.3,793.94c30.41-5.33,60.79-17,88.77-33.77L609,593.28,620.15,574l298.7,172.45c29-21,54.43-47.22,73.28-78,22.11-36.06,34.37-75.49,38.1-116.49H625V530ZM152.91,655.55l-6-22.22,190.13-50.94,6,22.22Zm587.64-73.64,190.13,50.94-6,22.22L734.59,604.12Z"/><path class="cls-5" d="M632.08,931.79l22.22-6-38-141.93a153.55,153.55,0,0,0-21.52,8.55Z"/><path class="cls-4" d="M581.14,741.67l13.61,50.78a153.55,153.55,0,0,1,21.52-8.55l-12.91-48.19Z"/><path class="cls-5" d="M455.1,184.35l-9.69-36.15-22.22,6,15.62,58.31q1.77-4,3.81-7.89A171.83,171.83,0,0,1,455.1,184.35Z"/><path class="cls-4" d="M496.36,338.33l-41.26-154a171.83,171.83,0,0,0-12.47,20.23q-2,3.92-3.81,7.89l35.32,131.82Z"/><path class="cls-5" d="M779.91,797.07l35.56,35.56,16.26-16.26L809.3,793.94a216.28,216.28,0,0,1-28.69,3.11Z"/><path class="cls-4" d="M676.29,693.45,779.91,797.07l.7,0a216.28,216.28,0,0,0,28.69-3.11L692.56,677.19Z"/><path class="cls-5" d="M332.15,333.57c6.29-1.66,12.63-.31,18.92,2.83l-89-89-16.26,16.26,76.12,76.12A21.92,21.92,0,0,1,332.15,333.57Z"/><path class="cls-4" d="M401.21,386.54l-50.14-50.14c-6.29-3.14-12.63-4.5-18.92-2.83a21.92,21.92,0,0,0-10.27,6.18l63.06,63.06Z"/><rect class="cls-4" x="821.13" y="520.07" width="23" height="196.83" transform="translate(19.72 1262.67) rotate(-75)"/><path class="cls-5" d="M254.33,476a32.73,32.73,0,0,0,14.83-2.89,37.19,37.19,0,0,0,15-12.93L180.46,432.35c18,14.91,36,30.1,53,38Z"/><path class="cls-4" d="M146.83,447.15l86.67,23.22c-17.05-7.93-35.07-23.12-53-38l-27.68-7.42Z"/><path class="cls-4" d="M269.16,473.07A32.73,32.73,0,0,1,254.33,476L337,498.09l6-22.22-58.76-15.74A37.19,37.19,0,0,1,269.16,473.07Z"/><path class="cls-7" d="M797.64,458.46c1.91-.45,3.77-.95,5.59-1.5Z"/><path class="cls-4" d="M740.42,497.61l190.13-50.94-6-22.22L803.23,457c-1.82.55-3.68,1.05-5.59,1.5l-63.18,16.93Z"/><rect class="cls-4" x="146.58" y="607.47" width="196.83" height="23" transform="matrix(0.97, -0.26, 0.26, 0.97, -151.85, 84.5)"/><rect class="cls-5" x="655.25" y="313.23" width="196.83" height="23" transform="translate(-8.88 628.03) rotate(-45)"/><path class="cls-5" d="M321.12,741.72l-75,75L262.38,833l77.76-77.76c-5.3-4.05-10.94-8.11-17-12.16Z"/><path class="cls-4" d="M385.3,677.54l-64.18,64.18,2,1.34c6,4,11.69,8.11,17,12.16l61.42-61.42Z"/><path class="cls-5" d="M585.65,319.57l-5,18.63,22.22,6,17.26-64.43C611.14,296.58,598.87,309.35,585.65,319.57Z"/><path class="cls-5" d="M635.36,222.93,653.82,154l-22.22-6-4.1,15.29C633.84,181.25,636.61,202.15,635.36,222.93Z"/><path class="cls-4" d="M620.14,279.72l15.22-56.8c1.26-20.78-1.52-41.67-7.85-59.56L585.65,319.57C598.87,309.35,611.14,296.58,620.14,279.72Z"/><path class="cls-5" d="M423.68,926l22.22,6,17.86-66.65A58,58,0,0,1,442,857.43Z"/><path class="cls-4" d="M474.63,735.84,442,857.43a58,58,0,0,0,21.71,7.84L496.84,741.8Z"/></g></g><g id="DanHarvs"><path class="cls-8" d="M1023.62,14.09c0,2.49-11.4,4.5-25.5,4.5"/></g></svg>